<svg xmlns="http://www.w3.org/2000/svg" viewBox="0 0 256 64" width="256" height="64" role="img" aria-label="combo">
  <title>combo</title>
  <!-- Horizontal lockup for a light ground: the mark, then the word. The wordmark is
       geometry, not type - circles of radius 10 on a 20-unit x-height, one stroke width
       throughout - so it carries no font dependency, cannot fall back silently on a
       reader who lacks a typeface, and needs no generator to rebuild.
       See README.md in this directory before editing a coordinate. -->
  <g fill="#232B33">
    <rect x="28" y="19.5" width="24" height="5" />
    <rect x="28" y="29.5" width="24" height="5" />
    <rect x="28" y="39.5" width="24" height="5" />
  </g>
  <path fill="#227D74" d="M12 16 H24 V21 H17 V43 H24 V48 H12 Z" />
  <g transform="translate(66 0)" fill="none" stroke="#232B33" stroke-width="3.6" stroke-linecap="round" stroke-linejoin="round">
    <path d="M18.4 24.3 A10 10 0 1 0 18.4 39.7" />
    <circle cx="48" cy="32" r="10" />
    <path d="M74 42 V29.5 A7.5 7.5 0 0 1 89 29.5 V42 M89 29.5 A7.5 7.5 0 0 1 104 29.5 V42" />
    <path d="M120 10 V42" />
    <circle cx="130" cy="32" r="10" />
    <circle cx="166" cy="32" r="10" />
  </g>
</svg>
