<svg xmlns="http://www.w3.org/2000/svg" viewBox="0 0 640 220" width="640" height="220" role="img" aria-label="A bracket over an overflowing pile of documents, a gauge nearly full, a cross">
  <title>A bracket over an overflowing pile of documents, a gauge nearly full, a cross</title>
  <path d="M36 10 H48.75 L54.7 15.95 V33.8 H36 Z" fill="none" stroke="#7E8894" stroke-width="1.6" stroke-linecap="round" stroke-linejoin="round" stroke-opacity="0.6" />
  <path d="M48.75 10 V15.95 H54.7" fill="none" stroke="#7E8894" stroke-width="1.6" stroke-linecap="round" stroke-linejoin="round" stroke-opacity="0.6" />
  <rect x="40.25" y="20.2" width="10.2" height="1.53" fill="#7E8894" fill-opacity="0.48" />
  <rect x="40.25" y="24.45" width="7.139999999999999" height="1.53" fill="#7E8894" fill-opacity="0.48" />
  <rect x="40.25" y="28.7" width="10.2" height="1.53" fill="#7E8894" fill-opacity="0.48" />
  <path d="M62 10 H74.75 L80.7 15.95 V33.8 H62 Z" fill="none" stroke="#7E8894" stroke-width="1.6" stroke-linecap="round" stroke-linejoin="round" stroke-opacity="0.6" />
  <path d="M74.75 10 V15.95 H80.7" fill="none" stroke="#7E8894" stroke-width="1.6" stroke-linecap="round" stroke-linejoin="round" stroke-opacity="0.6" />
  <rect x="66.25" y="20.2" width="10.2" height="1.53" fill="#7E8894" fill-opacity="0.48" />
  <rect x="66.25" y="24.45" width="7.139999999999999" height="1.53" fill="#7E8894" fill-opacity="0.48" />
  <rect x="66.25" y="28.7" width="10.2" height="1.53" fill="#7E8894" fill-opacity="0.48" />
  <path d="M88 10 H100.75 L106.7 15.95 V33.8 H88 Z" fill="none" stroke="#7E8894" stroke-width="1.6" stroke-linecap="round" stroke-linejoin="round" stroke-opacity="0.6" />
  <path d="M100.75 10 V15.95 H106.7" fill="none" stroke="#7E8894" stroke-width="1.6" stroke-linecap="round" stroke-linejoin="round" stroke-opacity="0.6" />
  <rect x="92.25" y="20.2" width="10.2" height="1.53" fill="#7E8894" fill-opacity="0.48" />
  <rect x="92.25" y="24.45" width="7.139999999999999" height="1.53" fill="#7E8894" fill-opacity="0.48" />
  <rect x="92.25" y="28.7" width="10.2" height="1.53" fill="#7E8894" fill-opacity="0.48" />
  <path d="M114 10 H126.74999999999999 L132.7 15.95 V33.8 H114 Z" fill="none" stroke="#7E8894" stroke-width="1.6" stroke-linecap="round" stroke-linejoin="round" stroke-opacity="0.6" />
  <path d="M126.74999999999999 10 V15.95 H132.7" fill="none" stroke="#7E8894" stroke-width="1.6" stroke-linecap="round" stroke-linejoin="round" stroke-opacity="0.6" />
  <rect x="118.25" y="20.2" width="10.2" height="1.53" fill="#7E8894" fill-opacity="0.48" />
  <rect x="118.25" y="24.45" width="7.139999999999999" height="1.53" fill="#7E8894" fill-opacity="0.48" />
  <rect x="118.25" y="28.7" width="10.2" height="1.53" fill="#7E8894" fill-opacity="0.48" />
  <path d="M140 10 H152.75 L158.7 15.95 V33.8 H140 Z" fill="none" stroke="#7E8894" stroke-width="1.6" stroke-linecap="round" stroke-linejoin="round" stroke-opacity="0.6" />
  <path d="M152.75 10 V15.95 H158.7" fill="none" stroke="#7E8894" stroke-width="1.6" stroke-linecap="round" stroke-linejoin="round" stroke-opacity="0.6" />
  <rect x="144.25" y="20.2" width="10.2" height="1.53" fill="#7E8894" fill-opacity="0.48" />
  <rect x="144.25" y="24.45" width="7.139999999999999" height="1.53" fill="#7E8894" fill-opacity="0.48" />
  <rect x="144.25" y="28.7" width="10.2" height="1.53" fill="#7E8894" fill-opacity="0.48" />
  <path d="M36 42 H48.75 L54.7 47.95 V65.8 H36 Z" fill="none" stroke="#7E8894" stroke-width="1.6" stroke-linecap="round" stroke-linejoin="round" stroke-opacity="0.6" />
  <path d="M48.75 42 V47.95 H54.7" fill="none" stroke="#7E8894" stroke-width="1.6" stroke-linecap="round" stroke-linejoin="round" stroke-opacity="0.6" />
  <rect x="40.25" y="52.2" width="10.2" height="1.53" fill="#7E8894" fill-opacity="0.48" />
  <rect x="40.25" y="56.45" width="7.139999999999999" height="1.53" fill="#7E8894" fill-opacity="0.48" />
  <rect x="40.25" y="60.7" width="10.2" height="1.53" fill="#7E8894" fill-opacity="0.48" />
  <path d="M62 42 H74.75 L80.7 47.95 V65.8 H62 Z" fill="none" stroke="#7E8894" stroke-width="1.6" stroke-linecap="round" stroke-linejoin="round" stroke-opacity="0.6" />
  <path d="M74.75 42 V47.95 H80.7" fill="none" stroke="#7E8894" stroke-width="1.6" stroke-linecap="round" stroke-linejoin="round" stroke-opacity="0.6" />
  <rect x="66.25" y="52.2" width="10.2" height="1.53" fill="#7E8894" fill-opacity="0.48" />
  <rect x="66.25" y="56.45" width="7.139999999999999" height="1.53" fill="#7E8894" fill-opacity="0.48" />
  <rect x="66.25" y="60.7" width="10.2" height="1.53" fill="#7E8894" fill-opacity="0.48" />
  <path d="M88 42 H100.75 L106.7 47.95 V65.8 H88 Z" fill="none" stroke="#7E8894" stroke-width="1.6" stroke-linecap="round" stroke-linejoin="round" stroke-opacity="0.6" />
  <path d="M100.75 42 V47.95 H106.7" fill="none" stroke="#7E8894" stroke-width="1.6" stroke-linecap="round" stroke-linejoin="round" stroke-opacity="0.6" />
  <rect x="92.25" y="52.2" width="10.2" height="1.53" fill="#7E8894" fill-opacity="0.48" />
  <rect x="92.25" y="56.45" width="7.139999999999999" height="1.53" fill="#7E8894" fill-opacity="0.48" />
  <rect x="92.25" y="60.7" width="10.2" height="1.53" fill="#7E8894" fill-opacity="0.48" />
  <path d="M114 42 H126.74999999999999 L132.7 47.95 V65.8 H114 Z" fill="none" stroke="#7E8894" stroke-width="1.6" stroke-linecap="round" stroke-linejoin="round" stroke-opacity="0.6" />
  <path d="M126.74999999999999 42 V47.95 H132.7" fill="none" stroke="#7E8894" stroke-width="1.6" stroke-linecap="round" stroke-linejoin="round" stroke-opacity="0.6" />
  <rect x="118.25" y="52.2" width="10.2" height="1.53" fill="#7E8894" fill-opacity="0.48" />
  <rect x="118.25" y="56.45" width="7.139999999999999" height="1.53" fill="#7E8894" fill-opacity="0.48" />
  <rect x="118.25" y="60.7" width="10.2" height="1.53" fill="#7E8894" fill-opacity="0.48" />
  <path d="M140 42 H152.75 L158.7 47.95 V65.8 H140 Z" fill="none" stroke="#7E8894" stroke-width="1.6" stroke-linecap="round" stroke-linejoin="round" stroke-opacity="0.6" />
  <path d="M152.75 42 V47.95 H158.7" fill="none" stroke="#7E8894" stroke-width="1.6" stroke-linecap="round" stroke-linejoin="round" stroke-opacity="0.6" />
  <rect x="144.25" y="52.2" width="10.2" height="1.53" fill="#7E8894" fill-opacity="0.48" />
  <rect x="144.25" y="56.45" width="7.139999999999999" height="1.53" fill="#7E8894" fill-opacity="0.48" />
  <rect x="144.25" y="60.7" width="10.2" height="1.53" fill="#7E8894" fill-opacity="0.48" />
  <path d="M36 74 H48.75 L54.7 79.95 V97.8 H36 Z" fill="none" stroke="#7E8894" stroke-width="1.6" stroke-linecap="round" stroke-linejoin="round" stroke-opacity="0.6" />
  <path d="M48.75 74 V79.95 H54.7" fill="none" stroke="#7E8894" stroke-width="1.6" stroke-linecap="round" stroke-linejoin="round" stroke-opacity="0.6" />
  <rect x="40.25" y="84.2" width="10.2" height="1.53" fill="#7E8894" fill-opacity="0.48" />
  <rect x="40.25" y="88.45" width="7.139999999999999" height="1.53" fill="#7E8894" fill-opacity="0.48" />
  <rect x="40.25" y="92.7" width="10.2" height="1.53" fill="#7E8894" fill-opacity="0.48" />
  <path d="M62 74 H74.75 L80.7 79.95 V97.8 H62 Z" fill="none" stroke="#7E8894" stroke-width="1.6" stroke-linecap="round" stroke-linejoin="round" stroke-opacity="0.6" />
  <path d="M74.75 74 V79.95 H80.7" fill="none" stroke="#7E8894" stroke-width="1.6" stroke-linecap="round" stroke-linejoin="round" stroke-opacity="0.6" />
  <rect x="66.25" y="84.2" width="10.2" height="1.53" fill="#7E8894" fill-opacity="0.48" />
  <rect x="66.25" y="88.45" width="7.139999999999999" height="1.53" fill="#7E8894" fill-opacity="0.48" />
  <rect x="66.25" y="92.7" width="10.2" height="1.53" fill="#7E8894" fill-opacity="0.48" />
  <path d="M88 74 H100.75 L106.7 79.95 V97.8 H88 Z" fill="none" stroke="#7E8894" stroke-width="1.6" stroke-linecap="round" stroke-linejoin="round" stroke-opacity="0.6" />
  <path d="M100.75 74 V79.95 H106.7" fill="none" stroke="#7E8894" stroke-width="1.6" stroke-linecap="round" stroke-linejoin="round" stroke-opacity="0.6" />
  <rect x="92.25" y="84.2" width="10.2" height="1.53" fill="#7E8894" fill-opacity="0.48" />
  <rect x="92.25" y="88.45" width="7.139999999999999" height="1.53" fill="#7E8894" fill-opacity="0.48" />
  <rect x="92.25" y="92.7" width="10.2" height="1.53" fill="#7E8894" fill-opacity="0.48" />
  <path d="M114 74 H126.74999999999999 L132.7 79.95 V97.8 H114 Z" fill="none" stroke="#7E8894" stroke-width="1.6" stroke-linecap="round" stroke-linejoin="round" stroke-opacity="0.6" />
  <path d="M126.74999999999999 74 V79.95 H132.7" fill="none" stroke="#7E8894" stroke-width="1.6" stroke-linecap="round" stroke-linejoin="round" stroke-opacity="0.6" />
  <rect x="118.25" y="84.2" width="10.2" height="1.53" fill="#7E8894" fill-opacity="0.48" />
  <rect x="118.25" y="88.45" width="7.139999999999999" height="1.53" fill="#7E8894" fill-opacity="0.48" />
  <rect x="118.25" y="92.7" width="10.2" height="1.53" fill="#7E8894" fill-opacity="0.48" />
  <path d="M140 74 H152.75 L158.7 79.95 V97.8 H140 Z" fill="none" stroke="#7E8894" stroke-width="1.6" stroke-linecap="round" stroke-linejoin="round" stroke-opacity="0.6" />
  <path d="M152.75 74 V79.95 H158.7" fill="none" stroke="#7E8894" stroke-width="1.6" stroke-linecap="round" stroke-linejoin="round" stroke-opacity="0.6" />
  <rect x="144.25" y="84.2" width="10.2" height="1.53" fill="#7E8894" fill-opacity="0.48" />
  <rect x="144.25" y="88.45" width="7.139999999999999" height="1.53" fill="#7E8894" fill-opacity="0.48" />
  <rect x="144.25" y="92.7" width="10.2" height="1.53" fill="#7E8894" fill-opacity="0.48" />
  <path d="M36 106 H48.75 L54.7 111.95 V129.8 H36 Z" fill="none" stroke="#7E8894" stroke-width="1.6" stroke-linecap="round" stroke-linejoin="round" stroke-opacity="0.6" />
  <path d="M48.75 106 V111.95 H54.7" fill="none" stroke="#7E8894" stroke-width="1.6" stroke-linecap="round" stroke-linejoin="round" stroke-opacity="0.6" />
  <rect x="40.25" y="116.2" width="10.2" height="1.53" fill="#7E8894" fill-opacity="0.48" />
  <rect x="40.25" y="120.45" width="7.139999999999999" height="1.53" fill="#7E8894" fill-opacity="0.48" />
  <rect x="40.25" y="124.7" width="10.2" height="1.53" fill="#7E8894" fill-opacity="0.48" />
  <path d="M62 106 H74.75 L80.7 111.95 V129.8 H62 Z" fill="none" stroke="#7E8894" stroke-width="1.6" stroke-linecap="round" stroke-linejoin="round" stroke-opacity="0.6" />
  <path d="M74.75 106 V111.95 H80.7" fill="none" stroke="#7E8894" stroke-width="1.6" stroke-linecap="round" stroke-linejoin="round" stroke-opacity="0.6" />
  <rect x="66.25" y="116.2" width="10.2" height="1.53" fill="#7E8894" fill-opacity="0.48" />
  <rect x="66.25" y="120.45" width="7.139999999999999" height="1.53" fill="#7E8894" fill-opacity="0.48" />
  <rect x="66.25" y="124.7" width="10.2" height="1.53" fill="#7E8894" fill-opacity="0.48" />
  <path d="M88 106 H100.75 L106.7 111.95 V129.8 H88 Z" fill="none" stroke="#7E8894" stroke-width="1.6" stroke-linecap="round" stroke-linejoin="round" stroke-opacity="0.6" />
  <path d="M100.75 106 V111.95 H106.7" fill="none" stroke="#7E8894" stroke-width="1.6" stroke-linecap="round" stroke-linejoin="round" stroke-opacity="0.6" />
  <rect x="92.25" y="116.2" width="10.2" height="1.53" fill="#7E8894" fill-opacity="0.48" />
  <rect x="92.25" y="120.45" width="7.139999999999999" height="1.53" fill="#7E8894" fill-opacity="0.48" />
  <rect x="92.25" y="124.7" width="10.2" height="1.53" fill="#7E8894" fill-opacity="0.48" />
  <path d="M114 106 H126.74999999999999 L132.7 111.95 V129.8 H114 Z" fill="none" stroke="#7E8894" stroke-width="1.6" stroke-linecap="round" stroke-linejoin="round" stroke-opacity="0.6" />
  <path d="M126.74999999999999 106 V111.95 H132.7" fill="none" stroke="#7E8894" stroke-width="1.6" stroke-linecap="round" stroke-linejoin="round" stroke-opacity="0.6" />
  <rect x="118.25" y="116.2" width="10.2" height="1.53" fill="#7E8894" fill-opacity="0.48" />
  <rect x="118.25" y="120.45" width="7.139999999999999" height="1.53" fill="#7E8894" fill-opacity="0.48" />
  <rect x="118.25" y="124.7" width="10.2" height="1.53" fill="#7E8894" fill-opacity="0.48" />
  <path d="M140 106 H152.75 L158.7 111.95 V129.8 H140 Z" fill="none" stroke="#7E8894" stroke-width="1.6" stroke-linecap="round" stroke-linejoin="round" stroke-opacity="0.6" />
  <path d="M152.75 106 V111.95 H158.7" fill="none" stroke="#7E8894" stroke-width="1.6" stroke-linecap="round" stroke-linejoin="round" stroke-opacity="0.6" />
  <rect x="144.25" y="116.2" width="10.2" height="1.53" fill="#7E8894" fill-opacity="0.48" />
  <rect x="144.25" y="120.45" width="7.139999999999999" height="1.53" fill="#7E8894" fill-opacity="0.48" />
  <rect x="144.25" y="124.7" width="10.2" height="1.53" fill="#7E8894" fill-opacity="0.48" />
  <path d="M36 138 H48.75 L54.7 143.95 V161.8 H36 Z" fill="none" stroke="#7E8894" stroke-width="1.6" stroke-linecap="round" stroke-linejoin="round" stroke-opacity="0.35" />
  <path d="M48.75 138 V143.95 H54.7" fill="none" stroke="#7E8894" stroke-width="1.6" stroke-linecap="round" stroke-linejoin="round" stroke-opacity="0.35" />
  <rect x="40.25" y="148.2" width="10.2" height="1.53" fill="#7E8894" fill-opacity="0.27999999999999997" />
  <rect x="40.25" y="152.45" width="7.139999999999999" height="1.53" fill="#7E8894" fill-opacity="0.27999999999999997" />
  <rect x="40.25" y="156.7" width="10.2" height="1.53" fill="#7E8894" fill-opacity="0.27999999999999997" />
  <path d="M62 138 H74.75 L80.7 143.95 V161.8 H62 Z" fill="none" stroke="#7E8894" stroke-width="1.6" stroke-linecap="round" stroke-linejoin="round" stroke-opacity="0.35" />
  <path d="M74.75 138 V143.95 H80.7" fill="none" stroke="#7E8894" stroke-width="1.6" stroke-linecap="round" stroke-linejoin="round" stroke-opacity="0.35" />
  <rect x="66.25" y="148.2" width="10.2" height="1.53" fill="#7E8894" fill-opacity="0.27999999999999997" />
  <rect x="66.25" y="152.45" width="7.139999999999999" height="1.53" fill="#7E8894" fill-opacity="0.27999999999999997" />
  <rect x="66.25" y="156.7" width="10.2" height="1.53" fill="#7E8894" fill-opacity="0.27999999999999997" />
  <path d="M88 138 H100.75 L106.7 143.95 V161.8 H88 Z" fill="none" stroke="#7E8894" stroke-width="1.6" stroke-linecap="round" stroke-linejoin="round" stroke-opacity="0.35" />
  <path d="M100.75 138 V143.95 H106.7" fill="none" stroke="#7E8894" stroke-width="1.6" stroke-linecap="round" stroke-linejoin="round" stroke-opacity="0.35" />
  <rect x="92.25" y="148.2" width="10.2" height="1.53" fill="#7E8894" fill-opacity="0.27999999999999997" />
  <rect x="92.25" y="152.45" width="7.139999999999999" height="1.53" fill="#7E8894" fill-opacity="0.27999999999999997" />
  <rect x="92.25" y="156.7" width="10.2" height="1.53" fill="#7E8894" fill-opacity="0.27999999999999997" />
  <path d="M114 138 H126.74999999999999 L132.7 143.95 V161.8 H114 Z" fill="none" stroke="#7E8894" stroke-width="1.6" stroke-linecap="round" stroke-linejoin="round" stroke-opacity="0.35" />
  <path d="M126.74999999999999 138 V143.95 H132.7" fill="none" stroke="#7E8894" stroke-width="1.6" stroke-linecap="round" stroke-linejoin="round" stroke-opacity="0.35" />
  <rect x="118.25" y="148.2" width="10.2" height="1.53" fill="#7E8894" fill-opacity="0.27999999999999997" />
  <rect x="118.25" y="152.45" width="7.139999999999999" height="1.53" fill="#7E8894" fill-opacity="0.27999999999999997" />
  <rect x="118.25" y="156.7" width="10.2" height="1.53" fill="#7E8894" fill-opacity="0.27999999999999997" />
  <path d="M140 138 H152.75 L158.7 143.95 V161.8 H140 Z" fill="none" stroke="#7E8894" stroke-width="1.6" stroke-linecap="round" stroke-linejoin="round" stroke-opacity="0.35" />
  <path d="M152.75 138 V143.95 H158.7" fill="none" stroke="#7E8894" stroke-width="1.6" stroke-linecap="round" stroke-linejoin="round" stroke-opacity="0.35" />
  <rect x="144.25" y="148.2" width="10.2" height="1.53" fill="#7E8894" fill-opacity="0.27999999999999997" />
  <rect x="144.25" y="152.45" width="7.139999999999999" height="1.53" fill="#7E8894" fill-opacity="0.27999999999999997" />
  <rect x="144.25" y="156.7" width="10.2" height="1.53" fill="#7E8894" fill-opacity="0.27999999999999997" />
  <path d="M36 170 H48.75 L54.7 175.95 V193.8 H36 Z" fill="none" stroke="#7E8894" stroke-width="1.6" stroke-linecap="round" stroke-linejoin="round" stroke-opacity="0.35" />
  <path d="M48.75 170 V175.95 H54.7" fill="none" stroke="#7E8894" stroke-width="1.6" stroke-linecap="round" stroke-linejoin="round" stroke-opacity="0.35" />
  <rect x="40.25" y="180.2" width="10.2" height="1.53" fill="#7E8894" fill-opacity="0.27999999999999997" />
  <rect x="40.25" y="184.45" width="7.139999999999999" height="1.53" fill="#7E8894" fill-opacity="0.27999999999999997" />
  <rect x="40.25" y="188.7" width="10.2" height="1.53" fill="#7E8894" fill-opacity="0.27999999999999997" />
  <path d="M62 170 H74.75 L80.7 175.95 V193.8 H62 Z" fill="none" stroke="#7E8894" stroke-width="1.6" stroke-linecap="round" stroke-linejoin="round" stroke-opacity="0.35" />
  <path d="M74.75 170 V175.95 H80.7" fill="none" stroke="#7E8894" stroke-width="1.6" stroke-linecap="round" stroke-linejoin="round" stroke-opacity="0.35" />
  <rect x="66.25" y="180.2" width="10.2" height="1.53" fill="#7E8894" fill-opacity="0.27999999999999997" />
  <rect x="66.25" y="184.45" width="7.139999999999999" height="1.53" fill="#7E8894" fill-opacity="0.27999999999999997" />
  <rect x="66.25" y="188.7" width="10.2" height="1.53" fill="#7E8894" fill-opacity="0.27999999999999997" />
  <path d="M88 170 H100.75 L106.7 175.95 V193.8 H88 Z" fill="none" stroke="#7E8894" stroke-width="1.6" stroke-linecap="round" stroke-linejoin="round" stroke-opacity="0.35" />
  <path d="M100.75 170 V175.95 H106.7" fill="none" stroke="#7E8894" stroke-width="1.6" stroke-linecap="round" stroke-linejoin="round" stroke-opacity="0.35" />
  <rect x="92.25" y="180.2" width="10.2" height="1.53" fill="#7E8894" fill-opacity="0.27999999999999997" />
  <rect x="92.25" y="184.45" width="7.139999999999999" height="1.53" fill="#7E8894" fill-opacity="0.27999999999999997" />
  <rect x="92.25" y="188.7" width="10.2" height="1.53" fill="#7E8894" fill-opacity="0.27999999999999997" />
  <path d="M114 170 H126.74999999999999 L132.7 175.95 V193.8 H114 Z" fill="none" stroke="#7E8894" stroke-width="1.6" stroke-linecap="round" stroke-linejoin="round" stroke-opacity="0.35" />
  <path d="M126.74999999999999 170 V175.95 H132.7" fill="none" stroke="#7E8894" stroke-width="1.6" stroke-linecap="round" stroke-linejoin="round" stroke-opacity="0.35" />
  <rect x="118.25" y="180.2" width="10.2" height="1.53" fill="#7E8894" fill-opacity="0.27999999999999997" />
  <rect x="118.25" y="184.45" width="7.139999999999999" height="1.53" fill="#7E8894" fill-opacity="0.27999999999999997" />
  <rect x="118.25" y="188.7" width="10.2" height="1.53" fill="#7E8894" fill-opacity="0.27999999999999997" />
  <path d="M140 170 H152.75 L158.7 175.95 V193.8 H140 Z" fill="none" stroke="#7E8894" stroke-width="1.6" stroke-linecap="round" stroke-linejoin="round" stroke-opacity="0.35" />
  <path d="M152.75 170 V175.95 H158.7" fill="none" stroke="#7E8894" stroke-width="1.6" stroke-linecap="round" stroke-linejoin="round" stroke-opacity="0.35" />
  <rect x="144.25" y="180.2" width="10.2" height="1.53" fill="#7E8894" fill-opacity="0.27999999999999997" />
  <rect x="144.25" y="184.45" width="7.139999999999999" height="1.53" fill="#7E8894" fill-opacity="0.27999999999999997" />
  <rect x="144.25" y="188.7" width="10.2" height="1.53" fill="#7E8894" fill-opacity="0.27999999999999997" />
  <path fill="#2F958A" d="M176 30 H206 V44 H183.7 V176 H206 V190 H176 Z" />
  <path d="M250 30 H290 V190 H250 Z" fill="none" stroke="#7E8894" stroke-width="2" stroke-linecap="round" stroke-linejoin="round" stroke-opacity="0.8" />
  <rect x="250" y="42.79999999999998" width="40" height="147.20000000000002" fill="#2F958A" />
  <path d="M338 88 L382 132 M382 88 L338 132" fill="none" stroke="#2F958A" stroke-width="7" stroke-linecap="round" stroke-linejoin="round" />
  <path d="M420 44 H600 V176 H420 Z" fill="none" stroke="#7E8894" stroke-width="2" stroke-linecap="round" stroke-linejoin="round" stroke-opacity="0.8" />
  <path d="M420 60 H600" fill="none" stroke="#7E8894" stroke-width="1.5" stroke-linecap="round" stroke-linejoin="round" stroke-opacity="0.48" />
  <circle cx="430" cy="52" r="2.4" fill="#7E8894" fill-opacity="0.5599999999999999" />
  <circle cx="440" cy="52" r="2.4" fill="#7E8894" fill-opacity="0.5599999999999999" />
  <circle cx="450" cy="52" r="2.4" fill="#7E8894" fill-opacity="0.5599999999999999" />
  <path d="M438 80 l6 6 l-6 6" fill="none" stroke="#7E8894" stroke-width="2.2" stroke-linecap="round" stroke-linejoin="round" stroke-opacity="0.8" />
  <rect x="454" y="84" width="0" height="6" fill="#2F958A" />
</svg>
